<svg width="424" height="145" viewBox="0 0 424 145" fill="none" xmlns="http://www.w3.org/2000/svg">
<path d="M9.2 110V71.1H2.3V62.6H9.2V56.8C9.2 52.0667 10.5 48.2667 13.1 45.4C15.7667 42.4667 19.7 41 24.9 41C26.8333 41 28.6 41.1667 30.2 41.5C31.8 41.7667 33.2667 42.1667 34.6 42.7V50.5C32.5333 49.7667 30.4333 49.4 28.3 49.4C25.1667 49.4 23 49.9667 21.8 51.1C20.6 52.2333 20 54.1667 20 56.9V62.6H32.4L31.9 71.1H20V110H9.2ZM59.4352 111C53.7685 111 49.4018 109.433 46.3352 106.3C43.3352 103.167 41.8352 98.5667 41.8352 92.5V62.6H52.7352V92.5C52.7352 96.0333 53.6018 98.6333 55.3352 100.3C57.0685 101.967 59.7352 102.8 63.3352 102.8C66.0018 102.8 68.4685 102.3 70.7352 101.3C73.0018 100.3 74.9685 98.9667 76.6352 97.3V62.6H87.4352V110H77.5352L77.0352 105.1C74.9018 106.767 72.3685 108.167 69.4352 109.3C66.5018 110.433 63.1685 111 59.4352 111ZM124.148 111C115.881 111 109.481 108.967 104.948 104.9C100.414 100.833 98.1477 94.6 98.1477 86.2C98.1477 78.6 100.081 72.6 103.948 68.2C107.814 63.8 113.681 61.6 121.548 61.6C128.748 61.6 134.148 63.5 137.748 67.3C141.414 71.0333 143.248 75.8667 143.248 81.8V90.6H108.548C109.081 95.2 110.748 98.3667 113.548 100.1C116.348 101.833 120.614 102.7 126.348 102.7C128.748 102.7 131.214 102.467 133.748 102C136.281 101.533 138.481 100.933 140.348 100.2V108.2C138.214 109.133 135.748 109.833 132.948 110.3C130.214 110.767 127.281 111 124.148 111ZM108.548 83.5H133.648V80.2C133.648 76.9333 132.748 74.4 130.948 72.6C129.148 70.7333 126.114 69.8 121.848 69.8C116.781 69.8 113.281 70.9 111.348 73.1C109.481 75.3 108.548 78.7667 108.548 83.5ZM165.659 111C161.792 111 158.859 110.067 156.859 108.2C154.859 106.267 153.859 103.1 153.859 98.7V42.6H164.759V97.7C164.759 99.5667 165.092 100.833 165.759 101.5C166.425 102.167 167.425 102.5 168.759 102.5C170.359 102.5 171.892 102.3 173.359 101.9V109.8C172.092 110.267 170.859 110.567 169.659 110.7C168.525 110.9 167.192 111 165.659 111ZM181.27 110V71.1H174.37V62.6H181.27V56.8C181.27 52.0667 182.57 48.2667 185.17 45.4C187.837 42.4667 191.77 41 196.97 41C198.904 41 200.67 41.1667 202.27 41.5C203.87 41.7667 205.337 42.1667 206.67 42.7V50.5C204.604 49.7667 202.504 49.4 200.37 49.4C197.237 49.4 195.07 49.9667 193.87 51.1C192.67 52.2333 192.07 54.1667 192.07 56.9V62.6H204.47L203.97 71.1H192.07V110H181.27ZM223.737 111C220.737 111 217.937 110.467 215.337 109.4C212.803 108.333 210.77 106.733 209.237 104.6C207.703 102.4 206.937 99.7 206.937 96.5C206.937 91.9667 208.47 88.3333 211.537 85.6C214.67 82.8 219.47 81.4 225.937 81.4H241.137V79.3C241.137 77.0333 240.77 75.2333 240.037 73.9C239.37 72.5667 238.103 71.6 236.237 71C234.437 70.4 231.77 70.1 228.237 70.1C222.637 70.1 217.403 70.9333 212.537 72.6V64.5C214.67 63.6333 217.27 62.9333 220.337 62.4C223.403 61.8667 226.703 61.6 230.237 61.6C237.17 61.6 242.437 63 246.037 65.8C249.703 68.6 251.537 73.1667 251.537 79.5V110H242.237L241.537 105.2C239.603 107.067 237.203 108.5 234.337 109.5C231.537 110.5 228.003 111 223.737 111ZM226.637 103.2C229.903 103.2 232.737 102.667 235.137 101.6C237.603 100.467 239.603 98.9667 241.137 97.1V88.8H226.137C222.937 88.8 220.603 89.4333 219.137 90.7C217.737 91.9 217.037 93.7667 217.037 96.3C217.037 98.7667 217.87 100.533 219.537 101.6C221.203 102.667 223.57 103.2 226.637 103.2ZM263.624 110V62.6H273.624L274.224 68.1C276.491 66.6333 279.191 65.3 282.324 64.1C285.458 62.9 288.558 62.0667 291.624 61.6V69.9C289.758 70.2333 287.724 70.7333 285.524 71.4C283.391 72 281.358 72.7 279.424 73.5C277.491 74.2333 275.858 75 274.524 75.8V110H263.624Z" fill="#F3E9D2"/>
<path d="M345.593 90.4172H307.645C307.645 98.6075 312.832 101.884 320.75 103.249C328.667 104.614 340.952 101.611 345.593 99.9725C350.235 98.3345 355.968 99.1535 362.52 104.614C369.072 110.074 368.253 118.81 367.98 124.816C367.707 130.822 370.164 131.914 374.259 132.187C377.535 132.406 379.446 129.912 379.992 128.638V87.4141V73.3025C379.992 67.1871 382.94 63.2922 384.414 62.1092L401.613 44.9097C405.435 41.0876 406.8 40.5415 410.895 44.0907C414.172 46.9299 413.171 49.4598 412.26 50.3698L402.978 59.3791C403.069 61.0172 403.197 66.4773 402.978 75.2136C402.76 83.9498 395.025 86.9874 391.186 87.4141C391.277 97.6064 391.404 120.121 391.186 128.638C390.913 139.286 381.357 142.835 375.897 144.2C370.437 145.565 355.422 137.921 357.06 124.816C358.698 111.712 350.234 107.071 342.317 110.074C334.4 113.077 320.204 113.35 309.556 110.074C298.909 106.798 292.084 86.8681 298.363 72.9447C304.642 59.0213 317.473 57.1102 332.762 60.6593C344.993 63.4986 346.412 81.681 345.593 90.4172Z" fill="#F3E9D2"/>
<path d="M134.843 85.0001H107C107 76.0541 107 68.9589 122.035 68.0335C134.064 67.2931 135.586 79.0361 134.843 85.0001Z" fill="#F3E9D2"/>
<path d="M422.765 59.3206C422.235 57.4403 419.54 54.7435 418.259 53.6301C417.596 54.0012 414.945 56.4754 413.752 58.8258C412.56 61.1762 413.355 63.0318 414.283 64.1451C415.21 65.2585 418.656 66.2481 420.909 64.8874C423.162 63.5266 423.427 61.671 422.765 59.3206Z" fill="#F3E9D2"/>
</svg>
